<?xml version="1.0" encoding="UTF-8" standalone="no"?>
<!-- Created with Inkscape (http://www.inkscape.org/) -->

<svg
   width="48"
   height="48"
   viewBox="0 0 12.7 12.7"
   version="1.1"
   id="svg1"
   inkscape:version="1.3.2 (091e20e, 2023-11-25, custom)"
   sodipodi:docname="x-can_appicon.svg"
   inkscape:export-filename="x-can_appicon.png"
   inkscape:export-xdpi="96"
   inkscape:export-ydpi="96"
   xmlns:inkscape="http://www.inkscape.org/namespaces/inkscape"
   xmlns:sodipodi="http://sodipodi.sourceforge.net/DTD/sodipodi-0.dtd"
   xmlns="http://www.w3.org/2000/svg"
   xmlns:svg="http://www.w3.org/2000/svg">
  <sodipodi:namedview
     id="namedview1"
     pagecolor="#ffffff"
     bordercolor="#000000"
     borderopacity="0.25"
     inkscape:showpageshadow="2"
     inkscape:pageopacity="0.0"
     inkscape:pagecheckerboard="0"
     inkscape:deskcolor="#d1d1d1"
     inkscape:document-units="mm"
     inkscape:zoom="17.960512"
     inkscape:cx="22.967051"
     inkscape:cy="23.96925"
     inkscape:window-width="1920"
     inkscape:window-height="1129"
     inkscape:window-x="-8"
     inkscape:window-y="1072"
     inkscape:window-maximized="1"
     inkscape:current-layer="layer1" />
  <defs
     id="defs1" />
  <g
     inkscape:label="Camada 1"
     inkscape:groupmode="layer"
     id="layer1">
    <path
       style="fill:#000000;stroke-width:0.013181"
       d="M 5.5600773,8.079997 C 5.4168555,8.0168759 5.3647624,7.8336485 5.4574371,7.7189838 5.515969,7.6465584 5.5733814,7.6177603 5.6588283,7.617953 5.7542403,7.6181525 5.8347035,7.662147 5.866637,7.7315323 L 5.889605,7.7814343 6.2723199,7.7817827 6.655034,7.7821319 6.8190271,7.638053 C 6.909224,7.5588087 6.9851345,7.4876319 6.9877182,7.4798808 6.9910544,7.4699463 6.6285118,7.4657871 5.7586425,7.4657871 H 4.5248686 l 0.00898,-0.036246 c 0.00497,-0.019936 0.012893,-0.051074 0.017675,-0.0692 l 0.0087,-0.032954 3.0932928,-0.00334 c 2.8565056,-0.00304 3.0932926,-0.00171 3.0932926,0.018245 0,0.011862 -0.0069,0.044498 -0.01527,0.072522 l -0.01527,0.050958 -1.4181666,4.485e-4 -1.4181663,4.478e-4 -0.1208003,0.1092097 c -0.066442,0.060066 -0.1689759,0.1532913 -0.227857,0.2071695 -0.05888,0.053876 -0.1320479,0.1080175 -0.1625919,0.1203103 -0.049754,0.020025 -0.1300054,0.022427 -0.7706038,0.023064 -0.6189562,6.227e-4 -0.7150701,0.00334 -0.7150701,0.020032 0,0.029959 -0.080468,0.1144201 -0.1278857,0.1342319 -0.053587,0.02239 -0.1434473,0.022093 -0.1950488,-6.524e-4 z M 5.7252025,7.9713085 c 0.049858,-0.033199 0.065545,-0.058428 0.065545,-0.1054189 0,-0.069059 -0.024999,-0.107437 -0.084858,-0.1302989 -0.062602,-0.023909 -0.1026588,-0.014346 -0.1475893,0.035238 -0.041087,0.045335 -0.048064,0.082333 -0.025659,0.1359653 0.031353,0.075044 0.1280785,0.1074503 0.1925613,0.064515 z M 7.3941706,7.7136236 C 7.5783389,7.5530134 7.6492674,7.4871737 7.6492674,7.4768278 c 0,-0.013701 -0.4310899,-0.014857 -0.4371707,-0.00119 -0.00415,0.00926 -0.1818403,0.1701102 -0.2901247,0.262581 -0.02666,0.022768 -0.046447,0.043437 -0.043971,0.045928 0.00245,0.00252 0.1022681,0.00282 0.2217599,6.376e-4 l 0.2172575,-0.00393 z M 0.66380482,7.7241806 C 0.67442182,7.7140686 0.78394022,7.6185133 0.90718262,7.5118385 1.0304251,7.4051643 1.1490539,7.3020704 1.170803,7.2827426 1.1925477,7.2634146 1.2964906,7.1736093 1.401779,7.0831774 1.5070668,6.9927464 1.627624,6.8890991 1.6696832,6.8528515 1.7117416,6.8166055 1.7746046,6.7632205 1.8093768,6.7342227 1.8441475,6.7052277 1.9549177,6.6107029 2.0555311,6.5241758 2.1561444,6.4376488 2.2402376,6.3656867 2.2424046,6.3642603 2.2445546,6.3628503 2.1758658,6.2645823 2.0897287,6.1459241 1.7949548,5.7398676 1.309203,5.0483675 1.309203,5.0347928 c 0,-0.00415 0.250604,-0.00734 0.5568975,-0.00719 l 0.5568975,3.336e-4 0.09519,0.1413603 c 0.052356,0.077748 0.1283402,0.1888123 0.1688581,0.2468081 0.040516,0.057998 0.1103795,0.1601617 0.1552493,0.2270334 0.074257,0.1106701 0.1045344,0.1398182 0.1167301,0.1123775 0.00541,-0.012234 0.3417426,-0.3086418 0.5570836,-0.4909929 0.021404,-0.018127 0.090752,-0.078921 0.1541098,-0.1351053 L 3.7854146,5.0272658 h 0.4699329 c 0.2584634,0 0.4679557,0.00504 0.4655395,0.011187 -0.00245,0.00615 -0.1464669,0.132198 -0.320112,0.2800965 C 4.2271306,5.4664478 3.9958039,5.6636481 3.8867159,5.7567713 3.6078149,5.9948571 3.5204693,6.0691359 3.1545445,6.3794121 2.7275329,6.7414847 2.3655871,7.0508223 1.8074989,7.5306682 L 1.5610681,7.7425507 H 1.1027859 c -0.39247728,0 -0.45551088,-0.00267 -0.43898108,-0.018386 z M 3.0980195,7.5539624 C 3.0917178,7.5376001 2.791491,7.1164329 2.6976702,6.9923845 2.6734641,6.9603866 2.6538917,6.930724 2.654166,6.9264759 2.6544403,6.9222459 2.676682,6.9033969 2.703594,6.8846249 2.730506,6.8658529 2.8851548,6.7365159 3.0472611,6.5972018 3.2093667,6.4578885 3.3431301,6.3457185 3.3445135,6.347936 c 0.00526,0.00841 0.4458996,0.6181072 0.5745023,0.7948914 0.026371,0.036246 0.1004524,0.1400487 0.1646314,0.2306683 0.064181,0.090619 0.122335,0.1721764 0.1292365,0.1812383 0.00999,0.013122 -0.1016246,0.016474 -0.5478475,0.016474 -0.449631,0 -0.5617053,-0.00341 -0.5670173,-0.017252 z M 5.4500922,7.0237315 C 5.1371375,6.9558064 5.0197764,6.7451886 5.0842193,6.3671252 5.154932,5.9522745 5.3164534,5.7395883 5.6325731,5.6450639 5.7267995,5.6168915 5.7574466,5.6152679 6.2867915,5.610486 l 0.5553621,-0.00504 -0.010809,0.056908 c -0.00593,0.031301 -0.023049,0.1090361 -0.038003,0.1727503 -0.014961,0.063714 -0.027194,0.1271236 -0.027194,0.140908 0,0.024065 -0.018015,0.025229 -0.4514489,0.029144 l -0.4514496,0.00408 -0.072492,0.035816 c -0.1197209,0.059147 -0.1977719,0.212417 -0.2003385,0.3934055 -0.00119,0.085036 0.019031,0.1283714 0.077991,0.167035 0.031865,0.0209 0.082418,0.02365 0.4993805,0.027172 l 0.4639234,0.00393 -0.017141,0.075168 c -0.00943,0.041339 -0.03033,0.1329998 -0.04644,0.2036829 L 6.5388256,7.0439556 6.0362772,7.0429177 C 5.6621594,7.0421022 5.5123585,7.0372091 5.4501056,7.0237234 Z m 1.1809173,0.00378 C 6.6445841,7.0104238 7.1480986,6.3339017 7.4133738,5.9763271 7.4967367,5.8639592 7.5910832,5.7348524 7.6230337,5.6894236 l 0.058087,-0.082598 0.3349804,0.00348 0.3349812,0.00348 0.057442,0.1647627 c 0.031598,0.090619 0.1142554,0.3308428 0.1836923,0.5338302 0.069438,0.2029882 0.1525922,0.4424849 0.184791,0.5322155 0.032198,0.089731 0.058547,0.1714091 0.058547,0.1815067 0,0.015213 -0.046766,0.017749 -0.2730997,0.014798 L 8.2893558,7.0373484 8.2480313,6.9055386 C 8.2171528,6.807053 8.2012206,6.774006 8.185014,6.7748268 8.173085,6.775431 7.9825671,6.7769068 7.7616412,6.7780868 l -0.4016838,0.00222 -0.089309,0.1312345 -0.089309,0.1312345 -0.28171,5.761e-4 C 6.6760075,7.0438162 6.6206183,7.0405408 6.631008,7.0274555 Z M 8.1106759,6.4409577 C 8.1108754,6.4129039 7.9618507,5.9763271 7.952063,5.9763271 c -0.0063,0 -0.025592,0.019276 -0.042852,0.042837 C 7.7416247,6.2479618 7.6873958,6.322182 7.6443698,6.3816414 l -0.050073,0.0692 h 0.2581527 c 0.1419838,0 0.2581854,-0.00445 0.2582261,-0.00988 z m 0.8480268,0.566783 c 0.0043,-0.019936 0.022835,-0.1044589 0.041199,-0.1878292 0.018364,-0.08337 0.066294,-0.305799 0.1065184,-0.4942873 0.04022,-0.188489 0.090638,-0.416005 0.112033,-0.5055918 0.021396,-0.089587 0.0389,-0.17411 0.0389,-0.1878292 0,-0.023657 0.013886,-0.02494 0.2688864,-0.02494 h 0.268888 l 0.2364075,0.3130482 c 0.42669,0.5650208 0.391115,0.5223166 0.400666,0.480941 0.0046,-0.019847 0.04588,-0.2066106 0.09178,-0.4150353 l 0.08345,-0.3789539 h 0.251976 0.251976 l -0.08374,0.372363 c -0.174145,0.7743997 -0.228108,1.0209817 -0.228108,1.0423394 0,0.019839 -0.02596,0.022026 -0.261756,0.022026 H 10.276013 L 10.08029,6.7836514 C 9.9726423,6.6404725 9.8281119,6.4504622 9.7591124,6.3614054 L 9.6336584,6.1994837 9.5500984,6.605254 C 9.5041404,6.828427 9.4641434,7.0184381 9.4612164,7.0275 9.4572164,7.039925 9.3937654,7.043973 9.2033913,7.043973 H 8.9508908 Z M 3.8800235,6.4870915 c 2.884e-4,-0.00906 0.017111,-0.087654 0.03738,-0.1746482 l 0.036861,-0.1581726 0.4527737,-0.00348 c 0.2490256,-0.00193 0.4568113,0.00104 0.4617452,0.0066 0.00497,0.00556 -0.00141,0.051578 -0.014153,0.1023282 -0.012715,0.050747 -0.030144,0.1263733 -0.03873,0.1680581 l -0.015606,0.07579 H 4.3398952 c -0.359813,0 -0.4602869,-0.00363 -0.4598769,-0.016473 z m 7.7784295,-1.001115 c -0.03498,-0.016955 -0.07073,-0.048657 -0.09214,-0.081724 -0.01925,-0.029714 -0.04098,-0.058257 -0.04829,-0.063425 -0.0073,-0.00519 -1.486758,-0.0096 -3.28765,-0.00985 -1.8008921,-2.439e-4 -3.2771615,-0.00326 -3.2805978,-0.00667 -0.00341,-0.00341 0.00126,-0.03311 0.010461,-0.065938 L 4.9769472,5.1986825 6.5141173,5.1982888 8.0512866,5.1978951 8.2687725,5.0030006 C 8.4060148,4.880016 8.5070277,4.7999159 8.5425457,4.7859075 8.591714,4.7665205 8.6602501,4.7637106 9.084351,4.7637106 h 0.4855192 l 0.036194,-0.057257 c 0.047678,-0.07543 0.096644,-0.1029361 0.1846472,-0.1037271 0.087504,-8.155e-4 0.1477547,0.033073 0.1888019,0.1061077 0.058376,0.1038635 0.023279,0.2345858 -0.0783,0.2916787 -0.099076,0.055685 -0.2346681,0.027394 -0.2888422,-0.060259 l -0.027646,-0.044728 -0.4503749,3.144e-4 c -0.2477059,1.742e-4 -0.4728451,0.00556 -0.5003102,0.011906 -0.029166,0.00675 -0.078506,0.036891 -0.1186288,0.072411 -0.037781,0.033451 -0.1053664,0.091853 -0.1501887,0.1297889 -0.044824,0.037936 -0.081894,0.073419 -0.082381,0.078859 -4.982e-4,0.00541 0.7282829,0.00988 1.6194893,0.00988 h 1.6203751 l 0.009,-0.029655 c 0.01553,-0.051126 0.07134,-0.114532 0.124816,-0.1418169 0.169154,-0.086297 0.382011,0.035319 0.382011,0.2182583 0,0.1145869 -0.05058,0.1960067 -0.154222,0.2482843 -0.05789,0.029203 -0.156635,0.025815 -0.225867,-0.00774 z M 11.8557,5.3757164 c 0.05434,-0.028106 0.0835,-0.098857 0.06448,-0.1564889 -0.04393,-0.1331228 -0.213864,-0.1461259 -0.270427,-0.020692 -0.02834,0.062862 -0.01909,0.1083192 0.03256,0.1599748 0.04395,0.043949 0.109157,0.050421 0.173385,0.017207 z M 9.8439915,4.9143315 c 0.061698,-0.029277 0.081187,-0.08204 0.052571,-0.1423382 -0.054002,-0.113801 -0.2174236,-0.083984 -0.2174236,0.039671 0,0.062194 0.012507,0.084743 0.057991,0.1045434 0.052378,0.022805 0.054951,0.02276 0.1068572,-0.00185 z"
       id="path1" />
  </g>
</svg>
